<svg fill="none" height="32" viewBox="0 0 32 32" width="32" xmlns="http://www.w3.org/2000/svg"><path d="m24.3854 2.38583-.6392-.82138-.7952.67156c-2.2996 1.94214-3.5078 3.32647-5.0505 5.54022-.6881-.10489-1.4421-.14744-2.158-.14285-.6816.00436-1.368.05174-1.9687.14253-1.4795-2.10801-2.6928-3.49591-5.03776-5.53113l-.79422-.68932-.64848.82789c-3.61658 4.6171-6.29334 10.30365-6.29334 15.77945 0 3.4206 1.04495 6.626 3.50945 8.9705 2.46021 2.3405 6.19895 3.6935 11.32835 3.6935 5.13 0 8.8688-1.353 11.3289-3.6935 2.4644-2.3446 3.509-5.55 3.509-8.9705 0-5.4223-2.6804-11.13851-6.2903-15.77697z" stroke="#111" stroke-width="2"/><path clip-rule="evenodd" d="m21.6846 15.6762c-.6961 0-1.2633-.549-1.2633-1.2254s.5672-1.2254 1.2633-1.2254c.6973 0 1.2633.549 1.2633 1.2254s-.566 1.2254-1.2633 1.2254zm2.5266-1.2254c0-1.3541-1.1319-2.4508-2.5266-2.4508-1.3934 0-2.5266 1.0967-2.5266 2.4508 0 1.3529 1.1332 2.4508 2.5266 2.4508 1.3947 0 2.5266-1.0979 2.5266-2.4508zm-13.8964 1.2254c-.69606 0-1.26329-.549-1.26329-1.2254s.56723-1.2254 1.26329-1.2254c.6974 0 1.2633.549 1.2633 1.2254s-.5659 1.2254-1.2633 1.2254zm2.5267-1.2254c0-1.3541-1.1319-2.4508-2.5266-2.4508-1.39472 0-2.52664 1.0967-2.52664 2.4508 0 1.3529 1.13192 2.4508 2.52664 2.4508 1.3947 0 2.5266-1.0979 2.5266-2.4508zm7.5241 9.0067c-.691 1.4889-3.1203 2.2438-4.3659.6654-1.2469 1.5796-3.6762.8223-4.366-.6654-.3424-.7352.8085-1.2425 1.1521-.5024.4245.9142 2.5696 1.5943 2.5822-.9766v-.6176c-.7769-.2672-1.3403-.9779-1.3403-1.609 0-.7916.883-1.147 1.972-1.147 1.0902 0 1.9732.3554 1.9732 1.147 0 .6311-.5634 1.3418-1.3416 1.609v.6176c.0114 2.5978 2.1641 1.8785 2.5822.9766.3424-.7377 1.4958-.2352 1.1521.5024z" fill="#111" fill-rule="evenodd"/><path d="m15.9997 24.1229.1177-.0929-.1177-.1492-.1178.1492zm-4.366-.6654.1361-.0631-.0001-.0002zm1.1521-.5024-.136.0632zm2.5822-.9766.15.0007v-.0007zm0-.6176h.15v-.1071l-.1012-.0348zm1.2633 0-.0487-.1419-.1013.0348v.1071zm0 .6176h-.15v.0006zm2.5822.9766-.1361-.0631zm2.4711-7.4289c-.6177 0-1.1133-.4862-1.1133-1.0754h-.3c0 .7636.6388 1.3754 1.4133 1.3754zm-1.1133-1.0754c0-.5892.4956-1.0754 1.1133-1.0754v-.3c-.7745 0-1.4133.6118-1.4133 1.3754zm1.1133-1.0754c.6188 0 1.1133.4861 1.1133 1.0754h.3c0-.7635-.6375-1.3754-1.4133-1.3754zm1.1133 1.0754c0 .5893-.4945 1.0754-1.1133 1.0754v.3c.7758 0 1.4133-.6119 1.4133-1.3754zm1.5633 0c0-1.4412-1.2035-2.6008-2.6766-2.6008v.3c1.3162 0 2.3766 1.0339 2.3766 2.3008zm-2.6766-2.6008c-1.4719 0-2.6766 1.1595-2.6766 2.6008h.3c0-1.2668 1.0616-2.3008 2.3766-2.3008zm-2.6766 2.6008c0 1.44 1.2047 2.6008 2.6766 2.6008v-.3c-1.315 0-2.3766-1.0351-2.3766-2.3008zm2.6766 2.6008c1.4732 0 2.6766-1.1608 2.6766-2.6008h-.3c0 1.2657-1.0604 2.3008-2.3766 2.3008zm-11.3698-1.5254c-.61766 0-1.11329-.4862-1.11329-1.0754h-.3c0 .7636.63882 1.3754 1.41329 1.3754zm-1.11329-1.0754c0-.5892.49563-1.0754 1.11329-1.0754v-.3c-.77447 0-1.41329.6118-1.41329 1.3754zm1.11329-1.0754c.6189 0 1.1133.4861 1.1133 1.0754h.3c0-.7635-.6374-1.3754-1.4133-1.3754zm1.1133 1.0754c0 .5893-.4944 1.0754-1.1133 1.0754v.3c.7759 0 1.4133-.6119 1.4133-1.3754zm1.5634 0c0-1.4412-1.2035-2.6008-2.6766-2.6008v.3c1.3162 0 2.3766 1.0339 2.3766 2.3008zm-2.6766-2.6008c-1.47317 0-2.67664 1.1596-2.67664 2.6008h.3c0-1.2669 1.06037-2.3008 2.37664-2.3008zm-2.67664 2.6008c0 1.44 1.20342 2.6008 2.67664 2.6008v-.3c-1.31622 0-2.37664-1.0351-2.37664-2.3008zm2.67664 2.6008c1.4732 0 2.6766-1.1608 2.6766-2.6008h-.3c0 1.2657-1.0605 2.3008-2.3766 2.3008zm9.9147 6.3428c-.3226.695-1.0592 1.2298-1.8697 1.3992-.8053.1683-1.6617-.0277-2.2425-.7636l-.2355.1859c.6649.8424 1.6459 1.0581 2.5394.8714.8884-.1857 1.7119-.7727 2.0804-1.5666zm-4.3477.6356c-.5814.7365-1.4381.9322-2.2434.7636-.8105-.1697-1.5468-.7048-1.8687-1.3992l-.2722.1262c.3678.7933 1.1911 1.3807 2.0794 1.5667.8936.187 1.8749-.0284 2.5404-.8714zm-4.1122-.6358c-.0677-.1452-.0584-.2683-.0128-.3659.0474-.1016.14-.1871.2559-.2379.1157-.0507.2444-.0623.357-.0287.1089.0325.2118.1097.28.2566l.2721-.1263c-.1036-.2232-.2735-.3602-.4663-.4177-.1892-.0565-.3911-.0341-.5633.0414-.1721.0754-.3244.2084-.4072.3856-.0847.1812-.0909.3972.0126.6196zm.8801-.3759c.1221.2631.361.4977.6412.661.2812.1639.6188.2649.9498.2441.3354-.021.6605-.1677.8987-.49.2351-.318.3753-.7929.3785-1.4542l-.3-.0015c-.003.6242-.1357 1.0284-.3197 1.2774-.1808.2446-.4209.3529-.6763.3689-.26.0163-.539-.0635-.7799-.2039-.2417-.1409-.4301-.3342-.5202-.5281zm2.8682-1.0398v-.6176h-.3v.6176zm-.1012-.7595c-.361-.1241-.6732-.3519-.8944-.6213-.2221-.2706-.3447-.5735-.3447-.8458h-.3c0 .3589.159.7268.4128 1.0361.2549.3105.6129.5717 1.0287.7147zm-1.2391-1.4671c0-.3266.1767-.5688.4975-.7376.327-.1721.7928-.2594 1.3245-.2594v-.3c-.5573 0-1.0775.0904-1.4643.2939-.3929.2068-.6577.5381-.6577 1.0031zm1.822-.997c.5323 0 .9984.0873 1.3256.2594.321.1688.4976.411.4976.7376h.3c0-.465-.2648-.7963-.6579-1.0031-.3869-.2035-.9075-.2939-1.4653-.2939zm1.8232.997c0 .2723-.1226.5752-.3449.8458-.2212.2694-.5337.4971-.8954.6213l.0974.2838c.4165-.143.7749-.4042 1.0299-.7147.254-.3093.413-.6773.413-1.0362zm-1.3416 1.609v.6176h.3v-.6176zm0 .6182c.0029.6678.1432 1.1454.3789 1.464.239.3231.5654.4676.9015.4859.3315.018.6692-.0861.9497-.2514.2795-.1647.5176-.3993.6382-.6594l-.2722-.1262c-.0885.1909-.2762.3845-.5183.5271-.2411.1421-.5207.2245-.7811.2103-.2557-.0139-.4958-.1203-.6766-.3647-.1843-.2491-.3173-.6557-.3201-1.2869zm2.8683 1.0392c.0678-.1461.1705-.2233.2796-.2559.1128-.0337.2418-.0223.3577.0282.116.0505.2086.1357.256.237.0455.0974.0548.2206-.0132.3666l.2719.1267c.1038-.2229.0978-.4391.013-.6204-.0829-.1773-.2356-.3099-.4079-.3849-.1723-.0752-.3743-.0971-.5634-.0406-.1927.0576-.3625.1942-.4659.417z" fill="#111"/><g fill="#4fc571"><ellipse cx="10.315" cy="14.451" rx="1.263" ry="1.225"/><ellipse cx="21.685" cy="14.451" rx="1.263" ry="1.225"/></g></svg>