<svg fill="none" height="32" viewBox="0 0 12 32" width="12" xmlns="http://www.w3.org/2000/svg"><g stroke="#111" stroke-linecap="round" stroke-linejoin="round"><path d="m3.99999 3c-.15.85-.5 3.8-.7 6h5.4c-.2-2.2-.55-5.15-.7-6" stroke-width="2"/><path d="m9.7 14.15c-.6-.55-.85-1.55-.9-3.4 0-.45-.05-1.1-.1-1.8h-5.4c-.05.7-.1 1.35-.1 1.8-.05 1.85-.25 2.85-.9 3.4-.79347.7405-1.26096 1.7654-1.3 2.85v12c0 1 .9 2 2.8 2h4.4c1.9 0 2.8-1 2.8-2v-12c-.039-1.0846-.5065-2.1095-1.3-2.85z" fill="#72d08a" stroke-width="2"/><path d="m9 3v-1c0-.26522-.10536-.51957-.29289-.70711-.18754-.18753-.44189-.29289-.70711-.29289h-4c-.26522 0-.51957.10536-.70711.29289-.18753.18754-.29289.44189-.29289.70711v1z" fill="#111" stroke-width="1.5"/></g></svg>