<svg fill="none" height="32" viewBox="0 0 32 32" width="32" xmlns="http://www.w3.org/2000/svg"><path clip-rule="evenodd" d="m11.8479 13.5486h7.6126l.4007 13.3553h-8.0133z" fill="#72d08a" fill-rule="evenodd"/><g fill="#111"><path clip-rule="evenodd" d="m14.2519 4.09779h3.2053c.5071 0 .9182.41109.9182.91819l.0008 3.75348c.0108.26208.1249.53643.5948 1.35764l.6454 1.1079c.8012 1.3969 1.1629 2.3394 1.1629 3.4265v11.5005c0 1.4508-1.2989 2.0311-3.9792 2.0311h-1.8915c-2.603 0-3.9789-.5944-3.9789-2.0311v-11.5005c0-1.1596.4116-2.1547 1.3291-3.7121l.3092-.5276c.644-1.10753.7657-1.3899.7657-1.696v-3.70982c0-.5071.4111-.91819.9182-.91819zm2.2867 1.83564h-1.369l.0005 2.79237c0 .72527-.1017 1.03989-.8553 2.3457l-.6105 1.0449c-.6585 1.1456-.9382 1.8643-.9382 2.5451l-.0003 11.4269.0127-.0035.0258.0052.1298.0504c.3762.1341 1.0307.2162 1.9745.2162h1.8915c1.0741 0 1.7621-.0957 2.099-.2462l.0343-.0118.009.0008.0006-11.438c0-.6808-.2797-1.3995-.9382-2.5451l-.5986-1.0243c-.7645-1.32313-.8672-1.63723-.8672-2.3663z" fill-rule="evenodd"/><path d="m19.4605 12.2594c.5071 0 .9182.4111.9182.9182 0 .4709-.3545.859-.8111.912l-.1071.0062h-7.2119c-.5071 0-.9182-.4111-.9182-.9182 0-.4709.3545-.859.8111-.912l.1071-.0062z"/><path clip-rule="evenodd" d="m.245453 16.1455c0-8.62071 6.988427-15.609138 15.609047-15.609138 8.6207 0 15.6091 6.988428 15.6091 15.609138 0 8.6206-6.9884 15.609-15.6091 15.609-8.62062 0-15.609047-6.9884-15.609047-15.609zm29.381847 0c0-7.60651-6.1663-13.77277-13.7728-13.77277-7.60642 0-13.77268 6.16626-13.77268 13.77277 0 7.6064 6.16626 13.7727 13.77268 13.7727 7.6065 0 13.7728-6.1663 13.7728-13.7727z" fill-rule="evenodd"/><path d="m26.0021 4.60799 1.3189 1.27774-20.79462 21.46547-1.31895-1.2778z"/></g></svg>