<svg width="30" height="30" viewBox="0 0 30 30" fill="none" xmlns="http://www.w3.org/2000/svg">
<path d="M6.04711 0.333332C6.45767 0.333332 6.82012 0.586931 6.96207 0.960944L6.99518 1.06583L10.6787 15.5466C10.8108 16.0659 10.4934 16.5931 9.96984 16.7241C9.48363 16.8457 8.99057 16.583 8.81686 16.1291L8.78259 16.021L5.28577 2.27273H1.31111C0.809667 2.27273 0.396388 1.89838 0.339906 1.41612L0.333328 1.30303C0.333328 0.805734 0.71079 0.395871 1.19708 0.339856L1.31111 0.333332H6.04711Z" fill="#111111"/>
<path d="M17.8433 7C21.7407 7 24.9182 10.1799 25.0436 14.1715L25.0475 14.4169L24.8523 26.3323L28.7007 26.3333C29.1961 26.3333 29.6044 26.7194 29.6602 27.2167L29.6667 27.3333C29.6667 27.8462 29.2938 28.2688 28.8134 28.3266L28.7007 28.3333H23.8709C23.367 28.3333 22.9545 27.9343 22.9091 27.4268L22.9051 27.3165L23.0914 15.8663L12.8895 15.8667C12.356 15.8667 11.9236 15.419 11.9236 14.8667C11.9236 14.3538 12.2965 13.9312 12.7769 13.8734L12.8895 13.8667L23.0903 13.8665C22.8356 11.2071 20.6965 9.1113 18.0555 9.00429L17.8433 9H7.96596C7.43247 9 7 8.55228 7 8C7 7.48716 7.3729 7.06449 7.85331 7.00673L7.96596 7H17.8433Z" fill="#111111"/>
<path d="M9.73066 11.1778C4.54263 11.1778 0.333328 15.3147 0.333328 20.4222C0.333328 25.5298 4.54263 29.6667 9.73066 29.6667C14.9187 29.6667 19.128 25.5298 19.128 20.4222C19.128 15.3147 14.9187 11.1778 9.73066 11.1778Z" fill="#111111"/>
<path d="M9.73066 13.1172C13.8426 13.1172 17.1724 16.3897 17.1724 20.4222C17.1724 24.4547 13.8426 27.7273 9.73066 27.7273C5.61871 27.7273 2.28888 24.4547 2.28888 20.4222C2.28888 16.3897 5.61871 13.1172 9.73066 13.1172Z" fill="#333333"/>
<path d="M9.73066 13.1172C13.8426 13.1172 17.1724 16.3897 17.1724 20.4222C17.1724 24.4547 13.8426 27.7273 9.73066 27.7273C5.61871 27.7273 2.28888 24.4547 2.28888 20.4222C2.28888 16.3897 5.61871 13.1172 9.73066 13.1172Z" fill="#72D08A"/>
<path d="M9.73066 16.5434C7.57061 16.5434 5.81955 18.28 5.81955 20.4222C5.81955 22.5644 7.57061 24.301 9.73066 24.301C11.8907 24.301 13.6418 22.5644 13.6418 20.4222C13.6418 18.28 11.8907 16.5434 9.73066 16.5434Z" fill="#111111"/>
<path d="M9.73066 18.4828C10.8107 18.4828 11.6862 19.3511 11.6862 20.4222C11.6862 21.4933 10.8107 22.3616 9.73066 22.3616C8.65063 22.3616 7.7751 21.4933 7.7751 20.4222C7.7751 19.3511 8.65063 18.4828 9.73066 18.4828Z" fill="white"/>
</svg>
